Coordinates
version=1
nRows=14
nColumns=40
inDegrees=yes

Units are S.I. units (second, meters, Newtons, ...)
If the header above contains a line with 'inDegrees', this indicates whether rotational values are in degrees (yes) or radians (no).

endheader
time	pelvis_tilt	pelvis_list	pelvis_rotation	pelvis_tx	pelvis_ty	pelvis_tz	hip_flexion_r	hip_adduction_r	hip_rotation_r	knee_angle_r	knee_angle_r_beta	ankle_angle_r	subtalar_angle_r	mtp_angle_r	hip_flexion_l	hip_adduction_l	hip_rotation_l	knee_angle_l	knee_angle_l_beta	ankle_angle_l	subtalar_angle_l	mtp_angle_l	lumbar_extension	lumbar_bending	lumbar_rotation	arm_flex_r	arm_add_r	arm_rot_r	elbow_flex_r	pro_sup_r	wrist_flex_r	wrist_dev_r	arm_flex_l	arm_add_l	arm_rot_l	elbow_flex_l	pro_sup_l	wrist_flex_l	wrist_dev_l
      8.10000000	     10.24780183	     -2.32169655	    179.62985121	      0.34464286	      0.75593407	     -0.61879021	     60.76810663	     -5.33578392	      6.89323691	     65.98752010	      1.15169949	     24.61166301	      0.00000000	      0.00000000	     61.44041858	    -12.90038706	     -8.31692929	     70.30820091	      1.22710960	     17.04198560	      0.00000000	      0.00000000	    -66.25758059	     -0.45114526	     -4.02859766	     63.32815167	      1.13904181	     29.94842035	      3.04632510	      8.38921599	      0.00000000	      0.00000000	     69.35595840	     -9.30306289	     82.55678846	      3.08068403	     85.24023819	      0.00000000	      0.00000000
      8.10500000	     10.25900071	     -2.31237797	    179.53704166	      0.34462694	      0.75645384	     -0.61921853	     60.70836435	     -5.12713900	      7.12356010	     65.95380580	      1.15111107	     24.59325809	      0.00000000	      0.00000000	     61.40586665	    -13.08093528	     -8.46501597	     70.26595942	      1.22637234	     17.03753592	      0.00000000	      0.00000000	    -66.27179682	     -0.57139946	     -3.98052343	     63.32679875	      1.16490955	     29.94720461	      3.04114588	      8.38835944	      0.00000000	      0.00000000	     69.38234769	     -9.31082427	     82.54559476	      3.08095044	     85.23919554	      0.00000000	      0.00000000
      8.11000000	     10.31341779	     -2.35881036	    179.60912524	      0.34441018	      0.75688156	     -0.61924482	     60.68715280	     -5.25795062	      7.01411395	     65.77747036	      1.14803343	     24.55267773	      0.00000000	      0.00000000	     61.38533991	    -13.02874880	     -8.57595167	     70.14719581	      1.22429953	     16.94050857	      0.00000000	      0.00000000	    -66.20847730	     -0.56830568	     -4.01190096	     63.29485155	      1.16955437	     29.93125125	      3.00317785	      8.37953378	      0.00000000	      0.00000000	     69.36124887	     -9.26551348	     82.52525179	      3.10404435	     85.24530930	      0.00000000	      0.00000000
      8.11500000	     10.30575907	     -2.38211872	    179.63893964	      0.34440557	      0.75755708	     -0.61922669	     60.58083632	     -5.30735486	      7.00001144	     65.60461785	      1.14501659	     24.48693397	      0.00000000	      0.00000000	     61.28365242	    -12.91872560	     -8.49678763	     69.98395252	      1.22145039	     16.79175354	      0.00000000	      0.00000000	    -66.24986965	     -0.55471165	     -4.05444949	     63.34545090	      1.19081592	     29.92092912	      2.99528243	      8.37410614	      0.00000000	      0.00000000	     69.38906463	     -9.26783699	     82.48796279	      3.08140445	     85.24625906	      0.00000000	      0.00000000
      8.12000000	     10.27502840	     -2.38626038	    179.63440710	      0.34437413	      0.75817176	     -0.61925930	     60.45510462	     -5.31104499	      6.98229677	     65.46628678	      1.14260225	     24.42743205	      0.00000000	      0.00000000	     61.18048927	    -12.92930373	     -8.54738191	     69.86186520	      1.21931957	     16.68819009	      0.00000000	      0.00000000	    -66.29215117	     -0.57781415	     -4.05224081	     63.37798784	      1.20418725	     29.91709923	      2.97575588	      8.36585948	      0.00000000	      0.00000000	     69.39804298	     -9.25857365	     82.45815382	      3.07194858	     85.25248068	      0.00000000	      0.00000000
      8.12500000	     10.29218567	     -2.39358601	    179.64467630	      0.34431445	      0.75871177	     -0.61950188	     60.39648244	     -5.29012361	      7.01877362	     65.32700312	      1.14017129	     24.37332833	      0.00000000	      0.00000000	     61.10675912	    -12.94788341	     -8.58765988	     69.72189552	      1.21687664	     16.57706292	      0.00000000	      0.00000000	    -66.29088219	     -0.60867182	     -4.04891927	     63.36854773	      1.21444330	     29.90673714	      2.95656525	      8.35541161	      0.00000000	      0.00000000	     69.40992809	     -9.24642651	     82.42837092	      3.06603552	     85.26223475	      0.00000000	      0.00000000
      8.13000000	     10.31039379	     -2.41696343	    179.62373870	      0.34427203	      0.75921910	     -0.61977829	     60.33510462	     -5.25081254	      7.03693020	     65.22249052	      1.13834721	     24.34095284	      0.00000000	      0.00000000	     61.06471676	    -13.01556786	     -8.73260940	     69.63762349	      1.21540581	     16.52493037	      0.00000000	      0.00000000	    -66.26624375	     -0.69097588	     -4.04333822	     63.36288041	      1.22335544	     29.90393825	      2.94838026	      8.35055342	      0.00000000	      0.00000000	     69.42358802	     -9.23590204	     82.40901103	      3.07163742	     85.26276362	      0.00000000	      0.00000000
      8.13500000	     10.29174321	     -2.43140036	    179.63782606	      0.34426813	      0.75979350	     -0.61980440	     60.23558318	     -5.29207678	      7.01124101	     65.07102389	      1.13570361	     24.29382081	      0.00000000	      0.00000000	     60.97477566	    -12.99391863	     -8.76450722	     69.52028424	      1.21335786	     16.42767354	      0.00000000	      0.00000000	    -66.27977970	     -0.70023778	     -4.05305842	     63.35744633	      1.19708590	     29.90136508	      2.92637191	      8.34076669	      0.00000000	      0.00000000	     69.41407516	     -9.22983499	     82.38213660	      3.07007822	     85.26431061	      0.00000000	      0.00000000
      8.14000000	     10.27709172	     -2.44645028	    179.63401643	      0.34425345	      0.76033742	     -0.61993376	     60.13892717	     -5.29746324	      7.00705411	     64.94069441	      1.13342894	     24.24917569	      0.00000000	      0.00000000	     60.88644271	    -13.01530349	     -8.83640179	     69.41307694	      1.21148674	     16.34564544	      0.00000000	      0.00000000	    -66.29145625	     -0.74435949	     -4.05485651	     63.36295459	      1.19268461	     29.90643308	      2.91895749	      8.33452755	      0.00000000	      0.00000000	     69.42421258	     -9.22264316	     82.36108057	      3.06500750	     85.26789608	      0.00000000	      0.00000000
      8.14500000	     10.27089654	     -2.44801783	    179.64949883	      0.34424088	      0.76099820	     -0.62007142	     60.01345380	     -5.30354601	      6.96847520	     64.74167606	      1.12995541	     24.20165681	      0.00000000	      0.00000000	     60.78956613	    -13.01376598	     -8.87424538	     69.24905689	      1.20862405	     16.22591094	      0.00000000	      0.00000000	    -66.29391483	     -0.75965815	     -4.05733788	     63.35927944	      1.19609785	     29.90808965	      2.91523479	      8.32715357	      0.00000000	      0.00000000	     69.43515636	     -9.21699299	     82.33116793	      3.04946568	     85.27024663	      0.00000000	      0.00000000
      8.15000000	     10.24096915	     -2.48107953	    179.64994935	      0.34423562	      0.76153428	     -0.62035680	     59.90603973	     -5.30122080	      6.99244111	     64.61081161	      1.12767139	     24.16406550	      0.00000000	      0.00000000	     60.68318188	    -13.04108702	     -8.97573125	     69.12637863	      1.20648291	     16.12795937	      0.00000000	      0.00000000	    -66.31583752	     -0.82288519	     -4.07361089	     63.34705765	      1.21139989	     29.91009481	      2.91999801	      8.32244149	      0.00000000	      0.00000000	     69.43985357	     -9.22321377	     82.30128617	      3.04726661	     85.27171439	      0.00000000	      0.00000000
      8.15500000	     10.17924491	     -2.49263210	    179.65484193	      0.34424501	      0.76224177	     -0.62042670	     59.73265032	     -5.32186433	      6.96602073	     64.42173108	      1.12437132	     24.12124542	      0.00000000	      0.00000000	     60.51669964	    -13.02584400	     -9.00885793	     68.96821625	      1.20372245	     15.99278157	      0.00000000	      0.00000000	    -66.37159005	     -0.84821743	     -4.08140359	     63.36320613	      1.21956119	     29.91187006	      2.92736225	      8.31532486	      0.00000000	      0.00000000	     69.45852676	     -9.21097985	     82.26653032	      3.05379966	     85.28014682	      0.00000000	      0.00000000
      8.16000000	     10.19897192	     -2.49210786	    179.64485824	      0.34423328	      0.76279358	     -0.62067219	     59.66565752	     -5.27682419	      6.96742660	     64.27891567	      1.12187872	     24.10271068	      0.00000000	      0.00000000	     60.45327802	    -13.11891005	     -9.18305403	     68.84701814	      1.20160715	     15.94624805	      0.00000000	      0.00000000	    -66.34246723	     -0.89993495	     -4.06565312	     63.34161076	      1.23518893	     29.91140985	      2.91947598	      8.31039116	      0.00000000	      0.00000000	     69.45934944	     -9.21579548	     82.25052565	      3.05624992	     85.28277051	      0.00000000	      0.00000000
      8.16500000	     10.20867969	     -2.51968581	    179.64516336	      0.34417309	      0.76332611	     -0.62102868	     59.59567357	     -5.27121039	      6.97248719	     64.15254032	      1.11967305	     24.07628522	      0.00000000	      0.00000000	     60.36977882	    -13.17530460	     -9.32381016	     68.73019161	      1.19956814	     15.88167640	      0.00000000	      0.00000000	    -66.31107827	     -0.97444960	     -4.07598082	     63.29579764	      1.26379743	     29.90208229	      2.91086568	      8.30539868	      0.00000000	      0.00000000	     69.44928683	     -9.21043140	     82.24201701	      3.06538789	     85.28779231	      0.00000000	      0.00000000
